# xmcd CD database file
#
# Track frame offsets:
#	150
#	14764
#	34813
#	51155
#	75289
#	90712
#	108230
#	124004
#	143020
#	162593
#	175965
#	196478
#
# Disc length: 2880 seconds
#
# Revision: 0
# Processed by: cddbd v1.5.2PL0 Copyright (c) Steve Scherf et al.
# Submitted via: CDex 1.70beta2
#
DISCID=9c0b3e0c
DTITLE=Enigma - Seven Lives Many Faces
DYEAR=2008
DGENRE=New Age
TTITLE0=Encounters
TTITLE1=Seven Lives
TTITLE2=Touchness
TTITLE3=The Same Parenis
TTITLE4=Fata Morgana
TTITLE5=Hell's Heaven
TTITLE6=La Puerta Del Cielo
TTITLE7=Distorted Love
TTITLE8=Je T'aime Till My Dying Day
TTITLE9=Déja Vu
TTITLE10=Between Generallons
TTITLE11=The Language of Sound
EXTD=YEAR: 2008
EXTT0=
EXTT1=
EXTT2=
EXTT3=
EXTT4=
EXTT5=
EXTT6=
EXTT7=
EXTT8=
EXTT9=
EXTT10=
EXTT11=
PLAYORDER=
